<svg width="38" height="38" viewBox="0 0 38 38" fill="none" xmlns="http://www.w3.org/2000/svg">
<path d="M22.7109 6.16016C22.3013 6.16016 21.9688 6.49266 21.9688 6.90234C21.9688 7.31203 22.3013 7.64453 22.7109 7.64453C23.1206 7.64453 23.4531 7.31203 23.4531 6.90234C23.4531 6.49266 23.1206 6.16016 22.7109 6.16016Z" fill="#27368C"/>
<path d="M15.2891 6.16016C14.8794 6.16016 14.5469 6.49266 14.5469 6.90234C14.5469 7.31203 14.8794 7.64453 15.2891 7.64453C15.6987 7.64453 16.0312 7.31203 16.0312 6.90234C16.0312 6.49266 15.6987 6.16016 15.2891 6.16016Z" fill="#27368C"/>
<path d="M35.1146 22.1826C35.7516 21.2266 36.0703 20.0336 36.0703 19C36.0703 17.4417 35.3781 15.9939 34.1902 15.0122C34.4531 14.384 34.5859 13.7306 34.5859 13.0625C34.5859 10.9951 33.3794 9.06931 31.5856 8.17C31.8578 5.91271 30.3869 3.84364 28.2072 3.31587C27.3541 1.34366 25.4552 0 23.4531 0C21.5895 0 19.918 1.08701 19 2.67306C18.0819 1.08701 16.4104 0 14.5469 0C12.5447 0 10.6458 1.34366 9.79279 3.31595C7.6 3.84705 6.14294 5.92644 6.41436 8.17C4.62064 9.06923 3.41406 10.9951 3.41406 13.0625C3.41406 13.7306 3.54691 14.384 3.8098 15.0122C2.62193 15.994 1.92969 17.4417 1.92969 19C1.92969 20.0391 2.25105 21.2304 2.8854 22.1826C2.26553 23.0576 1.92969 24.0947 1.92969 25.1602C1.92969 26.5418 2.48989 27.858 3.48079 28.8353C2.97135 31.9148 5.42725 35.0312 8.60938 35.0312C8.63238 35.0312 8.65502 35.0309 8.67721 35.0302C9.73223 36.8502 11.6906 38 13.8047 38C16.0081 38 17.977 36.6774 19 34.7719C20.023 36.6774 21.9919 38 24.1953 38C26.3094 38 28.2678 36.8502 29.3228 35.0302C29.3451 35.0309 29.3676 35.0312 29.3906 35.0312C32.2068 35.0312 34.5859 32.5501 34.5859 29.6133C34.5859 29.3632 34.564 29.1061 34.5192 28.8353C35.5101 27.858 36.0703 26.5419 36.0703 25.1602C36.0703 24.0947 35.7345 23.0576 35.1146 22.1826ZM18.2578 11.2353C17.8208 10.9819 17.314 10.8359 16.7734 10.8359C16.3635 10.8359 16.0312 11.1682 16.0312 11.5781C16.0312 11.988 16.3635 12.3203 16.7734 12.3203C17.5919 12.3203 18.2578 12.9862 18.2578 13.8047V27.9188C17.1689 26.6837 15.5768 25.9023 13.8047 25.9023C13.3948 25.9023 13.0625 26.2346 13.0625 26.6445C13.0625 27.0544 13.3948 27.3867 13.8047 27.3867C16.2601 27.3867 18.2578 29.3844 18.2578 31.8398C18.2578 34.3743 16.2185 36.5156 13.8047 36.5156C12.0864 36.5156 10.5046 35.4995 9.77468 33.9269C9.64013 33.6371 9.33538 33.4661 9.01765 33.5019C8.96518 33.5079 8.913 33.5149 8.86083 33.522C6.74856 33.8109 4.36985 31.419 5.01377 28.7433C5.0799 28.4685 4.98416 28.18 4.76692 27.9992C3.90717 27.2839 3.41406 26.249 3.41406 25.1602C3.41406 24.4869 3.60443 23.8281 3.95868 23.2504C4.84886 23.9799 5.95613 24.418 7.125 24.418C7.53491 24.418 7.86719 24.0857 7.86719 23.6758C7.86719 23.2659 7.53491 22.9336 7.125 22.9336C5.11078 22.9336 3.41406 21.0952 3.41406 19C3.41406 17.729 4.06192 16.5598 5.14722 15.8723C5.48157 15.6605 5.5909 15.2235 5.39563 14.8792C5.06573 14.2974 4.89844 13.6862 4.89844 13.0625C4.89844 11.0593 6.5314 9.12891 8.60938 9.12891C10.5863 9.12891 12.3203 10.9671 12.3203 13.0625C12.3203 13.4724 12.6526 13.8047 13.0625 13.8047C13.4724 13.8047 13.8047 13.4724 13.8047 13.0625C13.8047 10.1257 11.4255 7.64453 8.60938 7.64453C8.36089 7.64453 8.11374 7.66464 7.86904 7.70272C7.86867 7.6832 7.86719 7.6642 7.86719 7.64453C7.86719 5.98819 9.21181 4.67578 10.8359 4.67578C11.6287 4.67578 12.3745 4.98461 12.9357 5.54525C13.2257 5.83493 13.6956 5.83463 13.9853 5.54473C14.275 5.25469 14.2748 4.78481 13.9848 4.49513C13.3077 3.81878 12.4513 3.38742 11.5232 3.24447C12.1777 2.27288 13.2662 1.48438 14.5469 1.48438C16.5238 1.48438 18.2578 3.32248 18.2578 5.41797V11.2353ZM30.875 24.418C32.0439 24.418 33.1512 23.9799 34.0414 23.2506C34.3956 23.8282 34.5859 24.487 34.5859 25.1602C34.5859 26.249 34.0928 27.2839 33.2332 27.9992C33.0158 28.18 32.9202 28.4685 32.9863 28.7433C33.065 29.0701 33.1016 29.3465 33.1016 29.6132C33.1016 31.917 31.0179 33.7788 29.1392 33.522C29.0871 33.5149 29.0348 33.5078 28.9823 33.5019C28.6642 33.4659 28.3598 33.6371 28.2254 33.9269C27.4955 35.4995 25.9136 36.5156 24.1953 36.5156C21.7815 36.5156 19.7422 34.3743 19.7422 31.8398C19.7422 29.3844 21.7399 27.3867 24.1953 27.3867C24.6051 27.3867 24.9375 27.0544 24.9375 26.6445C24.9375 26.2346 24.6051 25.9023 24.1953 25.9023C22.4232 25.9023 20.8311 26.6837 19.7422 27.9188V13.8047C19.7422 12.9862 20.4081 12.3203 21.2266 12.3203C21.6364 12.3203 21.9688 11.988 21.9688 11.5781C21.9688 11.1682 21.6364 10.8359 21.2266 10.8359C20.686 10.8359 20.1792 10.9819 19.7422 11.2353V5.41797C19.7422 3.32248 21.4762 1.48438 23.4531 1.48438C24.7338 1.48438 25.8222 2.27288 26.4767 3.2444C25.5487 3.38734 24.6924 3.8187 24.0152 4.49506C23.7251 4.78473 23.7248 5.25461 24.0145 5.54466C24.3042 5.83471 24.7742 5.83493 25.0641 5.54525C25.6256 4.98461 26.3713 4.67578 27.1641 4.67578C28.7964 4.67578 30.1328 5.99591 30.1328 7.64453C30.1328 7.66412 30.1313 7.6832 30.131 7.70272C29.8863 7.66464 29.6391 7.64453 29.3906 7.64453C26.5745 7.64453 24.1953 10.1257 24.1953 13.0625C24.1953 13.4724 24.5277 13.8047 24.9375 13.8047C25.3473 13.8047 25.6797 13.4724 25.6797 13.0625C25.6797 10.9671 27.4137 9.12891 29.3906 9.12891C31.4674 9.12891 33.1016 11.0584 33.1016 13.0625C33.1016 13.6862 32.9343 14.2974 32.6044 14.8792C32.4092 15.2235 32.5185 15.6605 32.8529 15.8723C33.9381 16.5598 34.5859 17.729 34.5859 19C34.5859 21.1027 32.8833 22.9336 30.875 22.9336C30.4652 22.9336 30.1328 23.2659 30.1328 23.6758C30.1328 24.0857 30.4652 24.418 30.875 24.418Z" fill="#27368C"/>
<path d="M16.5844 15.8867C16.3111 15.5813 15.842 15.5551 15.5364 15.8284C13.1564 17.9574 9.35156 16.2559 9.35156 13.0625C9.35156 12.6526 9.01929 12.3203 8.60937 12.3203C8.19946 12.3203 7.86719 12.6526 7.86719 13.0625C7.86719 15.639 9.75286 17.7824 12.2164 18.1878C11.9307 19.0879 11.0872 19.7422 10.0937 19.7422C9.68384 19.7422 9.35156 20.0745 9.35156 20.4844C9.35156 20.8943 9.68384 21.2266 10.0937 21.2266C11.9015 21.2266 13.4106 19.927 13.738 18.2131C14.7702 18.0781 15.7416 17.6365 16.5261 16.9347C16.8316 16.6614 16.8577 16.1922 16.5844 15.8867Z" fill="#27368C"/>
<path d="M8.60938 28.8711C8.19946 28.8711 7.86719 29.2034 7.86719 29.6133C7.86719 30.0232 8.19946 30.3555 8.60938 30.3555C10.5863 30.3555 12.3203 32.1936 12.3203 34.2891C12.3203 34.699 12.6526 35.0312 13.0625 35.0312C13.4724 35.0312 13.8047 34.699 13.8047 34.2891C13.8047 31.3522 11.4255 28.8711 8.60938 28.8711Z" fill="#27368C"/>
<path d="M14.5469 22.9336C12.0319 22.9336 9.87257 24.3129 8.73554 26.3186C8.53345 26.6752 8.65865 27.1281 9.0152 27.3302C9.37182 27.5323 9.8247 27.4072 10.0269 27.0506C10.9127 25.4878 12.5934 24.418 14.5469 24.418C14.9568 24.418 15.2891 24.0857 15.2891 23.6758C15.2891 23.2659 14.9568 22.9336 14.5469 22.9336Z" fill="#27368C"/>
<path d="M27.9063 19.7422C26.9128 19.7422 26.0693 19.0879 25.7836 18.1878C28.2471 17.7824 30.1328 15.639 30.1328 13.0625C30.1328 12.6526 29.8005 12.3203 29.3906 12.3203C28.9808 12.3203 28.6484 12.6526 28.6484 13.0625C28.6484 15.1087 26.9837 16.7734 24.9375 16.7734C24.0234 16.7734 23.1449 16.4378 22.4636 15.8284C22.1582 15.5551 21.6889 15.5812 21.4156 15.8867C21.1422 16.1922 21.1684 16.6614 21.4739 16.9347C22.2584 17.6365 23.2299 18.0781 24.262 18.2131C24.5894 19.927 26.0985 21.2266 27.9063 21.2266C28.3161 21.2266 28.6484 20.8943 28.6484 20.4844C28.6484 20.0745 28.3161 19.7422 27.9063 19.7422Z" fill="#27368C"/>
<path d="M29.3906 28.8711C26.5745 28.8711 24.1953 31.3522 24.1953 34.2891C24.1953 34.699 24.5277 35.0312 24.9375 35.0312C25.3473 35.0312 25.6797 34.699 25.6797 34.2891C25.6797 32.1936 27.4137 30.3555 29.3906 30.3555C29.8005 30.3555 30.1328 30.0232 30.1328 29.6133C30.1328 29.2034 29.8005 28.8711 29.3906 28.8711Z" fill="#27368C"/>
<path d="M29.2645 26.3186C28.1302 24.3178 25.9739 22.9336 23.4531 22.9336C23.0433 22.9336 22.7109 23.2659 22.7109 23.6758C22.7109 24.0857 23.0433 24.418 23.4531 24.418C25.4052 24.418 27.0872 25.4875 27.973 27.0506C28.1754 27.4076 28.6286 27.5322 28.9847 27.3303C29.3413 27.1282 29.4665 26.6753 29.2645 26.3186Z" fill="#27368C"/>
</svg>
